<svg width="155" height="155" viewBox="0 0 155 155" fill="none" xmlns="http://www.w3.org/2000/svg">
<g clip-path="url(#clip0_68_30)">
<path d="M64.2533 106.234L102.75 77.3619L64.2533 48.4893V106.234ZM77.0855 13.2007C41.6685 13.2007 12.9243 41.9449 12.9243 77.3619C12.9243 112.779 41.6685 141.523 77.0855 141.523C112.502 141.523 141.247 112.779 141.247 77.3619C141.247 41.9449 112.502 13.2007 77.0855 13.2007ZM77.0855 128.691C48.7904 128.691 25.7566 105.657 25.7566 77.3619C25.7566 49.0668 48.7904 26.0329 77.0855 26.0329C105.381 26.0329 128.414 49.0668 128.414 77.3619C128.414 105.657 105.381 128.691 77.0855 128.691Z" fill="white"/>
</g>
<defs>
<clipPath id="clip0_68_30">
<rect width="153.987" height="153.987" fill="white" transform="translate(0.092041 0.368423)"/>
</clipPath>
</defs>
</svg>
